# xmcd
#
# Track frame offsets:
# 150
# 17518
# 31289
# 45338
# 56425
# 69920
# 83092
# 100525
# 114326
# 127069
# 139079
# 152703
# 166031
# 177831
# 191577
# 207159
# 223260
# 236459
# 250075
# 268928
# 281392
# 293423
#
# Disc length: 4083 seconds
#
#
# Revision: 0
# Processed by: cddbd v1.5.2PL0 Copyright (c) Steve Scherf et al.
# Submitted via: FreeRIP 2.942 
#
DISCID=250ff116
DTITLE=Forrónejo - O Melhor do Forró Sertanejo - Forrónejo
DYEAR=1900
DGENRE=Forró
TTITLE0=Eu Juro
TTITLE1=Que Pescar Que Nada
TTITLE2=Mais do Que Eu
TTITLE3=Amor de Carnaval
TTITLE4=Amor Divertido
TTITLE5=Agua de Coco
TTITLE6=Na Hora do Amor
TTITLE7=Raridade
TTITLE8=Alguem
TTITLE9=Na Hora H
TTITLE10=Por te Amar Demais
TTITLE11=Minha Estrela Perdida
TTITLE12=Bobo
TTITLE13=Faz
TTITLE14=Dois Corações e Uma História
TTITLE15=Cada Volta é um Recomeço
TTITLE16=Por um Gole a Masi
TTITLE17=Nos Bares da Cidade
TTITLE18=Quando um Grande Amor se Faz
TTITLE19=Vire e Mexe
TTITLE20=Desculpa Mais Eu Vou Chorar
TTITLE21=Cuida do Nosso Amor
EXTD=
EXTT0=
EXTT1=
EXTT2=
EXTT3=
EXTT4=
EXTT5=
EXTT6=
EXTT7=
EXTT8=
EXTT9=
EXTT10=
EXTT11=
EXTT12=
EXTT13=
EXTT14=
EXTT15=
EXTT16=
EXTT17=
EXTT18=
EXTT19=
EXTT20=
EXTT21=
PLAYORDER=
